<?xml version="1.0" encoding="UTF-8"?>
<svg xmlns="http://www.w3.org/2000/svg" viewBox="0 0 24 24" width="512" height="512">
  <path d="M23,11h-3V8a1,1,0,0,0-1-1H18V4a1,1,0,0,0-1-1H7A1,1,0,0,0,6,4V7H5A1,1,0,0,0,4,8v3H1a1,1,0,0,0-1,1v9a1,1,0,0,0,1,1H23a1,1,0,0,0,1-1V12A1,1,0,0,0,23,11ZM8,5h8V7H8ZM6,9H18v2H6Zm16,11H2V13H22Z" fill="#1e40af"/>
  <path d="M5,15H9a1,1,0,0,0,0-2H5a1,1,0,0,0,0,2Z" fill="#1e40af"/>
  <path d="M5,18H9a1,1,0,0,0,0-2H5a1,1,0,0,0,0,2Z" fill="#1e40af"/>
  <path d="M15,15h4a1,1,0,0,0,0-2H15a1,1,0,0,0,0,2Z" fill="#1e40af"/>
  <path d="M15,18h4a1,1,0,0,0,0-2H15a1,1,0,0,0,0,2Z" fill="#1e40af"/>
</svg>
