<?xml version="1.0" encoding="UTF-8"?>
<svg version="1.1" xmlns="http://www.w3.org/2000/svg" width="706" height="256">
<path d="M0 0 C232.98 0 465.96 0 706 0 C706 84.48 706 168.96 706 256 C473.02 256 240.04 256 0 256 C0 171.52 0 87.04 0 0 Z " fill="#FDFDFE" transform="translate(0,0)"/>
<path d="M0 0 C1.17331375 0.18432587 1.17331375 0.18432587 2.37033081 0.37237549 C19.49943408 3.10017722 36.09987367 6.76988352 52.5625 12.25 C53.9313996 12.69735281 55.30054036 13.14396831 56.66992188 13.58984375 C61.91793512 15.30781307 67.14190886 17.01860766 72.25 19.125 C72.25 19.455 72.25 19.785 72.25 20.125 C70.47880197 19.98366501 68.70804713 19.83676792 66.9375 19.6875 C65.45830078 19.56568359 65.45830078 19.56568359 63.94921875 19.44140625 C61.25 19.125 61.25 19.125 58.25 18.125 C33.15321005 14.31566581 7.52815208 13.91494225 -17.75 13.125 C-17.75 39.195 -17.75 65.265 -17.75 92.125 C-20.72 92.785 -23.69 93.445 -26.75 94.125 C-29.85546706 94.91128551 -32.95350407 95.72121938 -36.05078125 96.5390625 C-38.75 97.125 -38.75 97.125 -42.75 97.125 C-42.75 70.395 -42.75 43.665 -42.75 16.125 C-60.29954442 18.30178913 -60.29954442 18.30178913 -77.75 21.125 C-78.08 49.835 -78.41 78.545 -78.75 108.125 C-99.75 116.125 -99.75 116.125 -103.75 117.125 C-103.75 87.425 -103.75 57.725 -103.75 27.125 C-121.44399028 33.13323163 -121.44399028 33.13323163 -138.75 40.125 C-139.41 40.125 -140.07 40.125 -140.75 40.125 C-140.72335266 41.33276596 -140.69670532 42.54053192 -140.66925049 43.78489685 C-140.42561773 55.1866129 -140.24593285 66.58779875 -140.12825394 77.99153042 C-140.06571626 83.85410259 -139.98095401 89.71456813 -139.84472656 95.57592773 C-139.71399253 101.23658368 -139.64252097 106.89521873 -139.61147308 112.55726814 C-139.58935973 114.71324545 -139.54617192 116.86911632 -139.48123932 119.02422905 C-139.00550181 135.47354006 -139.00550181 135.47354006 -141.89546204 139.86598587 C-145.03019284 143.12192308 -148.80816222 145.02441894 -152.75 147.125 C-154.64747401 148.72071105 -156.50899318 150.36130497 -158.3125 152.0625 C-160.75426979 154.33587187 -162.96677037 156.26951358 -165.75 158.125 C-166.08 124.135 -166.41 90.145 -166.75 55.125 C-183.16773706 67.4383028 -201.49117266 81.87623772 -205.46875 103.5234375 C-207.40000304 121.3875281 -203.61618857 136.84158853 -192.3125 150.9375 C-190.80791796 152.68082564 -189.28853745 154.41156664 -187.75 156.125 C-187.22019531 156.73730469 -186.69039063 157.34960938 -186.14453125 157.98046875 C-176.17361474 168.77161489 -162.66547855 176.43561305 -149.75 183.125 C-149.04987793 183.49334961 -148.34975586 183.86169922 -147.62841797 184.24121094 C-129.90773367 193.46348537 -110.59195174 200.26719629 -90.95288086 203.9855957 C-85.93061328 204.94438672 -85.93061328 204.94438672 -83.75 207.125 C-113.67221131 205.31576712 -142.73701709 201.75976925 -171.75 194.125 C-172.70471191 193.87492188 -173.65942383 193.62484375 -174.64306641 193.3671875 C-207.13502242 184.67560419 -238.64113512 169.8824237 -262.75 146.125 C-263.48992187 145.39796875 -264.22984375 144.6709375 -264.9921875 143.921875 C-277.96843671 130.28923964 -283.35246393 114.03812328 -283.02734375 95.41796875 C-282.24572558 77.75961991 -269.73939244 62.49148073 -257.62890625 50.6953125 C-231.92553233 27.74711706 -198.33801249 14.86984672 -165.34472656 6.77294922 C-163.10275242 6.21308853 -160.87494668 5.62175975 -158.6484375 5.00390625 C-108.13517955 -8.66125932 -51.304276 -8.07413626 0 0 Z " fill="#02315D" transform="translate(320.75,25.875)"/>
<path d="M0 0 C3.29443498 0.02384956 6.58806713 0.02049187 9.88256836 0.01391602 C25.15295586 0.03390334 39.879623 1.12293962 54.89624023 3.96118164 C55.63036133 4.09524414 56.36448242 4.22930664 57.12084961 4.36743164 C58.85935737 4.68558992 60.59670495 5.0100799 62.33374023 5.33618164 C62.33374023 5.66618164 62.33374023 5.99618164 62.33374023 6.33618164 C61.02219971 6.34552734 59.71065918 6.35487305 58.359375 6.36450195 C23.83733598 6.65213268 -9.22916463 7.92888921 -42.82983398 16.60571289 C-45.48997788 17.29078352 -48.15581901 17.94328894 -50.82641602 18.58618164 C-89.47617403 28.06484324 -135.5482976 47.81080081 -157.41625977 83.08618164 C-163.46890413 94.00033212 -166.98106522 105.55720992 -163.72485352 117.90649414 C-163.00455436 120.1903695 -162.24699478 122.46300655 -161.44360352 124.71899414 C-160.66625977 127.33618164 -160.66625977 127.33618164 -161.66625977 129.33618164 C-170.97994045 120.46290267 -180.24675713 111.47890191 -181.13500977 97.82055664 C-181.50837693 80.74570805 -175.58439564 68.69695714 -164.54125977 55.86743164 C-124.60694386 14.17130768 -55.48413602 -0.42824024 0 0 Z " fill="#8B8B8B" transform="translate(181.666259765625,-0.336181640625)"/>
<path d="M0 0 C52.47 0 104.94 0 159 0 C159 0.33 159 0.66 159 1 C158.22736816 1.08975098 157.45473633 1.17950195 156.65869141 1.27197266 C111.69311469 6.60304576 63.76413963 17.51283182 28 47 C27.49484863 47.41475586 26.98969727 47.82951172 26.46923828 48.25683594 C14.59966563 58.13761392 3.60629361 71.05545577 1.48046875 86.86328125 C1.22535556 90.24778291 1.05521315 93.60690102 1 97 C0.67 97 0.34 97 0 97 C0 64.99 0 32.98 0 0 Z " fill="#FEFEFE" transform="translate(0,0)"/>
<path d="M0 0 C27 0 27 0 37 5 C43.58048037 12.29835096 46.66325742 19.23549558 46.34765625 29.12890625 C45.35177631 37.35330804 42.2035355 44.46951419 36 50 C28.7018106 54.81645912 22.04829093 54.47411992 13.5 54.25 C9.045 54.1675 4.59 54.085 0 54 C0 36.18 0 18.36 0 0 Z " fill="#06355F" transform="translate(440,160)"/>
<path d="M0 0 C12 0 12 0 15.0078125 2.53515625 C16.10400391 4.21826172 16.10400391 4.21826172 17.125 6.0625 C17.51478027 6.68141113 17.90456055 7.30032227 18.30615234 7.93798828 C19.13326939 9.25366151 19.9436902 10.57995865 20.73828125 11.91552734 C22.44430789 14.73403653 24.2872657 17.45064739 26.13867188 20.17504883 C28.11561897 23.10117733 30.05399988 26.05319981 32 29 C32.33 19.43 32.66 9.86 33 0 C36.96 0 40.92 0 45 0 C45 17.82 45 35.64 45 54 C33 54 33 54 30.10888672 51.75268555 C29.47225098 50.7244165 28.83561523 49.69614746 28.1796875 48.63671875 C27.82407745 48.08893265 27.46846741 47.54114655 27.1020813 46.97676086 C25.98482845 45.236129 24.93086524 43.46588841 23.875 41.6875 C23.13151475 40.50599368 22.384145 39.32692239 21.6328125 38.15039062 C19.71244771 35.12564032 17.85692122 32.06411871 16 29 C15.34 28.01 14.68 27.02 14 26 C13.67 35.24 13.34 44.48 13 54 C8.71 54 4.42 54 0 54 C0 36.18 0 18.36 0 0 Z " fill="#03325E" transform="translate(600,160)"/>
<path d="M0 0 C13.2 0 26.4 0 40 0 C40 4.29 40 8.58 40 13 C31.09 13 22.18 13 13 13 C13 15.64 13 18.28 13 21 C20.92 21 28.84 21 37 21 C37 24.96 37 28.92 37 33 C29.08 33 21.16 33 13 33 C13 35.64 13 38.28 13 41 C21.91 41 30.82 41 40 41 C40 45.29 40 49.58 40 54 C26.8 54 13.6 54 0 54 C0 36.18 0 18.36 0 0 Z " fill="#06355F" transform="translate(188,160)"/>
<path d="M0 0 C6.7134375 -0.0928125 6.7134375 -0.0928125 13.5625 -0.1875 C14.96056885 -0.21481201 16.3586377 -0.24212402 17.79907227 -0.27026367 C26.02484647 -0.32531923 31.43550045 -0.08923294 37.8125 5.4375 C42.13536079 10.50142264 42.43630863 14.39846172 42.31640625 20.953125 C41.72413966 26.65643295 39.62901804 30.41275165 35.5625 34.375 C30.42789001 37.63109414 26.1982281 38.27338062 20.1875 38.125 C16.6296875 38.063125 16.6296875 38.063125 13 38 C13 43.28 13 48.56 13 54 C8.71 54 4.42 54 0 54 C0 36.18 0 18.36 0 0 Z " fill="#05345F" transform="translate(318,160)"/>
<path d="M0 0 C12.87 0 25.74 0 39 0 C39 4.29 39 8.58 39 13 C30.09 13 21.18 13 12 13 C12 15.64 12 18.28 12 21 C19.92 21 27.84 21 36 21 C36 24.96 36 28.92 36 33 C28.08 33 20.16 33 12 33 C12 35.64 12 38.28 12 41 C20.91 41 29.82 41 39 41 C39 45.29 39 49.58 39 54 C26.13 54 13.26 54 0 54 C0 36.18 0 18.36 0 0 Z " fill="#03325E" transform="translate(380,160)"/>
<path d="M0 0 C12.87 0 25.74 0 39 0 C39 3.96 39 7.92 39 12 C30.09 12 21.18 12 12 12 C12 14.97 12 17.94 12 21 C19.92 21 27.84 21 36 21 C36 24.96 36 28.92 36 33 C28.08 33 20.16 33 12 33 C12 35.97 12 38.94 12 42 C20.91 42 29.82 42 39 42 C39 45.96 39 49.92 39 54 C26.13 54 13.26 54 0 54 C0 36.18 0 18.36 0 0 Z " fill="#00305C" transform="translate(540,160)"/>
<path d="M0 0 C10.79712747 -1.68788841 10.79712747 -1.68788841 16 0 C20.56935068 3.60981269 23.31233306 8.93478154 26 14 C29.11476432 11.15145485 30.81533583 8.46716374 32.75 4.75 C34.5018501 2.1125568 35.7175744 0.31038754 38.88427734 -0.45605469 C43.62100139 -0.88439283 48.28318502 -0.50961987 53 0 C47.49026592 9.04499008 41.32961981 17.51853837 35 26 C39.68012587 33.14503484 44.62558242 40.06383861 49.671875 46.953125 C50.23132813 47.72140625 50.79078125 48.4896875 51.3671875 49.28125 C51.87362793 49.97283203 52.38006836 50.66441406 52.90185547 51.37695312 C54 53 54 53 54 54 C48.67489562 54.96212676 43.20416627 55.88579642 38 54 C33.03483125 49.7565818 30.00351365 43.70158523 27 38 C24.85728699 40.54796525 23.01879734 42.96552271 21.421875 45.89453125 C19.52633166 49.20287442 17.93073771 51.535131 15 54 C9.77230073 55.35053303 4.29331407 54.63596856 -1 54 C4.70639652 44.51612972 11.28726992 35.7849686 18 27 C14.86451421 21.21677065 11.20873176 15.98171525 7.3125 10.6875 C6.140669 9.08816062 4.97003509 7.48794322 3.80078125 5.88671875 C3.28684814 5.18764404 2.77291504 4.48856934 2.2434082 3.76831055 C1 2 1 2 0 0 Z " fill="#04335E" transform="translate(246,160)"/>
<path d="M0 0 C13.86 0 27.72 0 42 0 C42 4.29 42 8.58 42 13 C37.05 13 32.1 13 27 13 C27 26.53 27 40.06 27 54 C23.04 54 19.08 54 15 54 C15 40.47 15 26.94 15 13 C10.05 13 5.1 13 0 13 C0 8.71 0 4.42 0 0 Z " fill="#02325D" transform="translate(664,160)"/>
<path d="M0 0 C8 0 8 0 10.4375 1.1875 C12.35661121 3.41366901 12.68762196 5.11050316 13 8 C13.598125 7.05125 14.19625 6.1025 14.8125 5.125 C17 2 17 2 20 0 C24.66510697 -0.50707684 27.18706566 0.30851694 31 3 C31.33 2.34 31.66 1.68 32 1 C33.32 1 34.64 1 36 1 C36 3.31 36 5.62 36 8 C38.31 8 40.62 8 43 8 C43 5.69 43 3.38 43 1 C43.99 1 44.98 1 46 1 C46 6.94 46 12.88 46 19 C33.79 19 21.58 19 9 19 C8.01 17.02 7.02 15.04 6 13 C5.01 12.67 4.02 12.34 3 12 C3 13.98 3 15.96 3 18 C2.01 18 1.02 18 0 18 C0 12.06 0 6.12 0 0 Z " fill="#FAFAFA" transform="translate(317,237)"/>
<path d="M0 0 C4.29 0 8.58 0 13 0 C13 17.82 13 35.64 13 54 C8.71 54 4.42 54 0 54 C0 36.18 0 18.36 0 0 Z " fill="#083661" transform="translate(505,160)"/>
<path d="M0 0 C2.92937654 1.81310142 5.43647949 3.87295899 7 7 C7.33 5.02 7.66 3.04 8 1 C10.1875 1.0625 10.1875 1.0625 13 2 C14.96065539 4.20441255 16.40665873 6.496178 18 9 C18.33 6.03 18.66 3.06 19 0 C20.32 0 21.64 0 23 0 C23 4.95 23 9.9 23 15 C24.65 14.34 26.3 13.68 28 13 C31.3125 13.875 31.3125 13.875 34 15 C33.505 13.515 33.505 13.515 33 12 C31.845 11.566875 30.69 11.13375 29.5 10.6875 C28.345 10.130625 27.19 9.57375 26 9 C25.0625 5.8125 25.0625 5.8125 25 3 C27.22230844 1.02461472 28.58699552 0.06043968 31.5625 -0.375 C34 0 34 0 35.8125 1.375 C37 3 37 3 37 5 C34.36 4.67 31.72 4.34 29 4 C29 4.99 29 5.98 29 7 C30.11375 7.28875 31.2275 7.5775 32.375 7.875 C36 9 36 9 38 11 C37.8125 14 37.8125 14 37 17 C33.11928742 19.58714172 29.85362574 19.30577355 25.3515625 19.30078125 C24.50201996 19.30506638 23.65247742 19.3093515 22.77719116 19.31376648 C20.98005056 19.31950864 19.18288672 19.32001088 17.38574219 19.31567383 C14.64217202 19.31251974 11.89968638 19.33595331 9.15625 19.36132812 C7.40885552 19.36360179 5.66145816 19.3643043 3.9140625 19.36328125 C3.0962027 19.372491 2.2783429 19.38170074 1.43569946 19.39118958 C-3.20820021 19.35365999 -6.20898636 18.97787001 -10 16 C-12.32402951 12.79062591 -12.47570691 9.88493979 -12 6 C-8.57142548 0.85713823 -6.21724352 -0.71737425 0 0 Z " fill="#F3F3F3" transform="translate(460,237)"/>
<path d="M0 0 C5.61 0 11.22 0 17 0 C17 1.32 17 2.64 17 4 C15.68 4 14.36 4 13 4 C13 8.62 13 13.24 13 18 C11.68 18 10.36 18 9 18 C9 13.38 9 8.76 9 4 C7.02 4 5.04 4 3 4 C2.68546875 4.99902344 2.3709375 5.99804688 2.046875 7.02734375 C1.61544441 8.33101444 1.18310536 9.63438474 0.75 10.9375 C0.54503906 11.59685547 0.34007812 12.25621094 0.12890625 12.93554688 C-0.515625 14.83984375 -0.515625 14.83984375 -2 18 C-4.83172907 19.08254005 -7.53943638 19.11797678 -10.546875 19.09765625 C-11.39121094 19.09443359 -12.23554687 19.09121094 -13.10546875 19.08789062 C-13.97816406 19.07951172 -14.85085938 19.07113281 -15.75 19.0625 C-16.63816406 19.05798828 -17.52632812 19.05347656 -18.44140625 19.04882812 C-20.62763316 19.03707422 -22.81382528 19.01913966 -25 19 C-25 13.06 -25 7.12 -25 1 C-23.39125 0.95875 -21.7825 0.9175 -20.125 0.875 C-19.22007812 0.85179687 -18.31515625 0.82859375 -17.3828125 0.8046875 C-15 1 -15 1 -13 3 C-12.67 2.34 -12.34 1.68 -12 1 C-10.68 1 -9.36 1 -8 1 C-7.49384702 2.26839526 -6.99530901 3.53983102 -6.5 4.8125 C-6.2215625 5.52019531 -5.943125 6.22789062 -5.65625 6.95703125 C-5 9 -5 9 -5 12 C-4.34 12 -3.68 12 -3 12 C-2.87625 10.948125 -2.7525 9.89625 -2.625 8.8125 C-2 5 -2 5 0 0 Z " fill="#F7F7F7" transform="translate(638,237)"/>
<path d="M0 0 C13 0 13 0 18 4 C20.49812572 8.99625143 20.73836637 14.52007612 20 20 C18.00342873 23.85544798 16.60292362 25.59805092 13 28 C8.71 28 4.42 28 0 28 C0 18.76 0 9.52 0 0 Z " fill="#FCFDFD" transform="translate(453,173)"/>
<path d="M0 0 C3.74817794 0.28288135 6.07469317 1.39982467 9.3125 3.25 C9.3125 2.26 9.3125 1.27 9.3125 0.25 C11.1875 0.375 11.1875 0.375 13.3125 1.25 C14.5625 4.3125 14.5625 4.3125 15.3125 7.25 C15.9725 7.25 16.6325 7.25 17.3125 7.25 C17.9725 5.27 18.6325 3.29 19.3125 1.25 C20.6325 1.25 21.9525 1.25 23.3125 1.25 C21.50215517 5.90517241 21.50215517 5.90517241 20.28125 8.125 C19.20353379 10.48902266 18.91514981 12.41996887 18.6875 15 C18.61273437 15.79921875 18.53796875 16.5984375 18.4609375 17.421875 C18.41195312 18.02515625 18.36296875 18.6284375 18.3125 19.25 C15.10465279 19.39622024 11.89767039 19.48436651 8.6875 19.5625 C7.78386719 19.60439453 6.88023437 19.64628906 5.94921875 19.68945312 C1.45336536 19.77149425 -1.69192325 19.77013202 -5.2734375 16.85546875 C-7.87369407 14.04904297 -8.56623419 13.1594936 -9.0625 9.4375 C-8.56704982 5.2261735 -6.84397263 3.94454981 -3.6875 1.25 C-2.6875 0.25 -2.6875 0.25 0 0 Z " fill="#FBFBFB" transform="translate(580.6875,236.75)"/>
<path d="M0 0 C1.32 3.63 2.64 7.26 4 11 C4.5775 9.370625 5.155 7.74125 5.75 6.0625 C6.734375 3.28515625 6.734375 3.28515625 8 1 C10.140625 0.18359375 10.140625 0.18359375 12 0 C10.69328927 6.75133875 8.67767805 12.66282862 6 19 C1.05 19 -3.9 19 -9 19 C-9 13.06 -9 7.12 -9 1 C-4 0 -4 0 0 0 Z " fill="#EFEFEF" transform="translate(209,237)"/>
<path d="M0 0 C5.50619612 3.26293103 5.50619612 3.26293103 6.55078125 6.9375 C6.81013892 10.85009577 6.20809832 12.68785252 4 16 C-0.15562097 18.77041398 -2.06667872 18.70476018 -7 18 C-9.43119623 16.12984906 -10.64069173 14.71861655 -12 12 C-12.43023798 8.12785818 -12.31669086 6.47503629 -10.125 3.1875 C-6.82949019 -0.20493657 -4.68335942 -0.54038763 0 0 Z " fill="#919191" transform="translate(460,237)"/>
<path d="M0 0 C10.13528336 -0.48263254 10.13528336 -0.48263254 13.6875 1.5 C15.54471702 5.03755624 15.84522239 8.15461884 15 12 C13.125 15 13.125 15 10 17 C6.55189604 17.40534963 3.49364097 17.2329094 0 17 C0 11.39 0 5.78 0 0 Z " fill="#8D8D8D" transform="translate(407,238)"/>
<path d="M0 0 C10.22989254 -0.60892218 10.22989254 -0.60892218 13.6875 2.125 C15.2166365 5.4745371 15.53105411 7.35848613 15 11 C12.73529412 15.63235294 12.73529412 15.63235294 10 17 C8.29297265 17.06996014 6.58331997 17.08440154 4.875 17.0625 C3.26625 17.041875 1.6575 17.02125 0 17 C0 11.39 0 5.78 0 0 Z " fill="#8C8C8C" transform="translate(688,238)"/>
<path d="M0 0 C5.61 0 11.22 0 17 0 C17 1.32 17 2.64 17 4 C15.68 4 14.36 4 13 4 C13 8.62 13 13.24 13 18 C11.68 18 10.36 18 9 18 C9 13.38 9 8.76 9 4 C7.02 4 5.04 4 3 4 C1.35 8.62 -0.3 13.24 -2 18 C-3.65 17.67 -5.3 17.34 -7 17 C-8.65 11.72 -10.3 6.44 -12 1 C-10.68 1 -9.36 1 -8 1 C-7.49384702 2.26839526 -6.99530901 3.53983102 -6.5 4.8125 C-6.08234375 5.87404297 -6.08234375 5.87404297 -5.65625 6.95703125 C-5 9 -5 9 -5 12 C-4.34 12 -3.68 12 -3 12 C-2.87625 10.948125 -2.7525 9.89625 -2.625 8.8125 C-2 5 -2 5 0 0 Z " fill="#909090" transform="translate(638,237)"/>
<path d="M0 0 C2.27024968 -0.08097324 4.54132075 -0.13917704 6.8125 -0.1875 C8.07707031 -0.22230469 9.34164063 -0.25710937 10.64453125 -0.29296875 C14 0 14 0 15.95703125 1.2890625 C17 3 17 3 16.875 6.5625 C16 10 16 10 13 12 C9.86328125 12.1953125 9.86328125 12.1953125 6.3125 12.125 C5.13300781 12.10695312 3.95351563 12.08890625 2.73828125 12.0703125 C1.83464844 12.04710937 0.93101562 12.02390625 0 12 C0 8.04 0 4.08 0 0 Z " fill="#F9FAFB" transform="translate(331,173)"/>
<path d="M0 0 C8 0 8 0 11 2 C11.66 2.66 12.32 3.32 13 4 C12.08943089 9.72357724 12.08943089 9.72357724 11.3125 12.125 C10.89416042 14.63503747 11.70741178 15.87103117 13 18 C10.625 17.75 10.625 17.75 8 17 C6.875 15 6.875 15 6 13 C5.01 12.67 4.02 12.34 3 12 C3 13.98 3 15.96 3 18 C2.01 18 1.02 18 0 18 C0 12.06 0 6.12 0 0 Z " fill="#919191" transform="translate(243,237)"/>
<path d="M0 0 C4 1 4 1 5.484375 2.84765625 C5.90203125 3.57855469 6.3196875 4.30945313 6.75 5.0625 C7.39195312 6.16271484 7.39195312 6.16271484 8.046875 7.28515625 C8.36140625 7.85105469 8.6759375 8.41695312 9 9 C9.33 6.03 9.66 3.06 10 0 C11.32 0 12.64 0 14 0 C14 5.94 14 11.88 14 18 C9.77000325 16.94250081 9.45069644 16.79967512 7.25 13.4375 C6.82203125 12.79683594 6.3940625 12.15617188 5.953125 11.49609375 C5.63859375 11.00238281 5.3240625 10.50867188 5 10 C4.67 12.64 4.34 15.28 4 18 C2.68 18 1.36 18 0 18 C0 12.06 0 6.12 0 0 Z " fill="#969696" transform="translate(556,237)"/>
<path d="M0 0 C8 0 8 0 10.5 1.125 C12.65784865 3.82231081 12.33795231 5.62047689 12 9 C11.79375 9.86625 11.5875 10.7325 11.375 11.625 C10.92732587 14.46026949 11.49668552 15.61238289 13 18 C10.625 17.75 10.625 17.75 8 17 C6.875 15 6.875 15 6 13 C5.01 12.67 4.02 12.34 3 12 C3 13.98 3 15.96 3 18 C2.01 18 1.02 18 0 18 C0 12.06 0 6.12 0 0 Z " fill="#909090" transform="translate(317,237)"/>
<path d="M0 0 C2.32421875 0.0703125 2.32421875 0.0703125 5 1 C6.23264809 3.38007607 7.04420428 5.35095962 7.8125 7.875 C8.02841797 8.51308594 8.24433594 9.15117187 8.46679688 9.80859375 C9.40188875 12.65246048 10 14.98995706 10 18 C8.68 17.67 7.36 17.34 6 17 C6 16.34 6 15.68 6 15 C3.36 15 0.72 15 -2 15 C-2 15.99 -2 16.98 -2 18 C-3.32 18 -4.64 18 -6 18 C-4.41039668 11.76559832 -2.72399099 5.83712355 0 0 Z " fill="#929292" transform="translate(544,237)"/>
<path d="M0 0 C1.65 0 3.3 0 5 0 C6.98 5.28 8.96 10.56 11 16 C9.68 16.33 8.36 16.66 7 17 C7 16.01 7 15.02 7 14 C5.0509375 14.185625 5.0509375 14.185625 3.0625 14.375 C2.33160156 14.44460937 1.60070312 14.51421875 0.84765625 14.5859375 C0.23792969 14.72257813 -0.37179687 14.85921875 -1 15 C-1.33 15.66 -1.66 16.32 -2 17 C-3.32 16.67 -4.64 16.34 -6 16 C-5.19110952 13.51960151 -4.37808099 11.04069788 -3.5625 8.5625 C-3.33240234 7.85544922 -3.10230469 7.14839844 -2.86523438 6.41992188 C-1.11328125 1.11328125 -1.11328125 1.11328125 0 0 Z " fill="#909090" transform="translate(304,238)"/>
<path d="M0 0 C1.65 0 3.3 0 5 0 C5.81832722 1.89332534 6.62942268 3.78977733 7.4375 5.6875 C8.11619141 7.27111328 8.11619141 7.27111328 8.80859375 8.88671875 C9.85447455 11.61972529 10.53520748 14.12042337 11 17 C9.68 17 8.36 17 7 17 C7 16.01 7 15.02 7 14 C4.36 14 1.72 14 -1 14 C-1.33 14.99 -1.66 15.98 -2 17 C-2.99 17 -3.98 17 -5 17 C-3.83348574 11.07136283 -2.24480642 5.61201606 0 0 Z " fill="#909090" transform="translate(377,238)"/>
<path d="M0 0 C1.32 0.33 2.64 0.66 4 1 C4.33 5.29 4.66 9.58 5 14 C6.32 14 7.64 14 9 14 C9.33 9.38 9.66 4.76 10 0 C11.32 0 12.64 0 14 0 C14.08119503 2.24940295 14.13927819 4.49964871 14.1875 6.75 C14.22230469 8.00296875 14.25710938 9.2559375 14.29296875 10.546875 C13.98583324 14.16697887 13.67183676 15.58033659 11 18 C9.0625 18.49609375 9.0625 18.49609375 7 18.4375 C5.9790625 18.43556641 5.9790625 18.43556641 4.9375 18.43359375 C2.28817287 17.84069998 1.48573968 17.29990662 0 15 C-0.2172101 12.35003674 -0.28351554 9.94923442 -0.1875 7.3125 C-0.17396484 6.61060547 -0.16042969 5.90871094 -0.14648438 5.18554688 C-0.11120182 3.45670171 -0.05739583 1.72825235 0 0 Z " fill="#989898" transform="translate(500,237)"/>
<path d="M0 0 C0.99 0 1.98 0 3 0 C3 5.94 3 11.88 3 18 C2.01 18 1.02 18 0 18 C-1.60546875 16.03125 -1.60546875 16.03125 -3.1875 13.5 C-3.71730469 12.6646875 -4.24710937 11.829375 -4.79296875 10.96875 C-5.39044922 9.99421875 -5.39044922 9.99421875 -6 9 C-6.33 11.97 -6.66 14.94 -7 18 C-7.99 18 -8.98 18 -10 18 C-10 12.39 -10 6.78 -10 1 C-4.56373389 2.35906653 -3.99305334 4.42727962 -1 9 C-0.67 6.03 -0.34 3.06 0 0 Z " fill="#8C8C8C" transform="translate(400,237)"/>
<path d="M0 0 C3.63 0 7.26 0 11 0 C11 1.32 11 2.64 11 4 C8.69 4 6.38 4 4 4 C4 4.99 4 5.98 4 7 C5.98 7 7.96 7 10 7 C10 8.32 10 9.64 10 11 C8.02 11 6.04 11 4 11 C4 12.32 4 13.64 4 15 C6.31 15 8.62 15 11 15 C11 15.99 11 16.98 11 18 C7.37 18 3.74 18 0 18 C0 12.06 0 6.12 0 0 Z " fill="#969696" transform="translate(286,237)"/>
<path d="M0 0 C3.63 0 7.26 0 11 0 C11 1.32 11 2.64 11 4 C8.69 4 6.38 4 4 4 C4 4.99 4 5.98 4 7 C5.98 7 7.96 7 10 7 C10 8.32 10 9.64 10 11 C8.02 11 6.04 11 4 11 C4 12.32 4 13.64 4 15 C6.31 15 8.62 15 11 15 C11 15.99 11 16.98 11 18 C7.37 18 3.74 18 0 18 C0 12.06 0 6.12 0 0 Z " fill="#969696" transform="translate(258,237)"/>
<path d="M0 0 C1.60875 -0.04125 3.2175 -0.0825 4.875 -0.125 C5.77992188 -0.14820313 6.68484375 -0.17140625 7.6171875 -0.1953125 C10 0 10 0 12 2 C12.33015665 5.10347254 12.50531294 7.15781176 10.875 9.875 C8.21965017 11.4682099 6.03210482 11.20214032 3 11 C3 12.98 3 14.96 3 17 C2.01 17 1.02 17 0 17 C0 11.39 0 5.78 0 0 Z " fill="#8C8C8C" transform="translate(613,238)"/>
<path d="M0 0 C4.22999675 1.05749919 4.54930356 1.20032488 6.75 4.5625 C7.17796875 5.20316406 7.6059375 5.84382812 8.046875 6.50390625 C8.36140625 6.99761719 8.6759375 7.49132812 9 8 C9.33 5.36 9.66 2.72 10 0 C10.99 0 11.98 0 13 0 C13 5.61 13 11.22 13 17 C12.01 17 11.02 17 10 17 C8.39453125 15.03125 8.39453125 15.03125 6.8125 12.5 C6.28269531 11.6646875 5.75289063 10.829375 5.20703125 9.96875 C4.60955078 8.99421875 4.60955078 8.99421875 4 8 C3.67 10.97 3.34 13.94 3 17 C2.01 17 1.02 17 0 17 C0 11.39 0 5.78 0 0 Z " fill="#8C8C8C" transform="translate(469,238)"/>
<path d="M0 0 C3.63 0 7.26 0 11 0 C11 1.32 11 2.64 11 4 C8.69 4 6.38 4 4 4 C4 4.99 4 5.98 4 7 C5.98 7 7.96 7 10 7 C10 8.32 10 9.64 10 11 C7.69 11 5.38 11 3 11 C3 12.32 3 13.64 3 15 C5.64 15 8.28 15 11 15 C11 15.99 11 16.98 11 18 C7.37 18 3.74 18 0 18 C0 12.06 0 6.12 0 0 Z " fill="#959595" transform="translate(223,237)"/>
<path d="M0 0 C3.60722783 0.27747906 5.39708186 1.06835671 8.25 3.25 C8.25 3.91 8.25 4.57 8.25 5.25 C7.26 5.58 6.27 5.91 5.25 6.25 C4.92 5.92 4.59 5.59 4.25 5.25 C0.75 5.08333333 0.75 5.08333333 -2.75 5.25 C-3.95561184 6.23267859 -3.95561184 6.23267859 -3.84765625 8.09765625 C-3.83605469 8.82855469 -3.82445312 9.55945313 -3.8125 10.3125 C-3.791875 11.611875 -3.77125 12.91125 -3.75 14.25 C1.82830016 14.37469099 1.82830016 14.37469099 7.25 13.25 C7.25 14.24 7.25 15.23 7.25 16.25 C4.89141372 18.60858628 4.17368052 18.61946499 0.9375 18.75 C-1.69616023 18.69053025 -3.24761143 18.58415753 -5.453125 17.1171875 C-7.70042841 14.65031997 -8.71287434 12.43191576 -9.375 9.1875 C-8.54630875 5.29265113 -6.73053881 3.79436239 -3.75 1.25 C-2.75 0.25 -2.75 0.25 0 0 Z " fill="#949494" transform="translate(580.75,236.75)"/>
<path d="M0 0 C1.8125 1.375 1.8125 1.375 3 3 C3 3.66 3 4.32 3 5 C0.36 4.67 -2.28 4.34 -5 4 C-5 4.99 -5 5.98 -5 7 C-3.88625 7.28875 -2.7725 7.5775 -1.625 7.875 C2 9 2 9 4 11 C3.43181818 16.56818182 3.43181818 16.56818182 2 18 C0.48071962 18.07179964 -1.04167482 18.08392007 -2.5625 18.0625 C-3.38878906 18.05347656 -4.21507812 18.04445312 -5.06640625 18.03515625 C-6.02353516 18.01775391 -6.02353516 18.01775391 -7 18 C-7.66 16.68 -8.32 15.36 -9 14 C-5.72724974 14 -3.153368 14.29925156 0 15 C-0.33 14.01 -0.66 13.02 -1 12 C-2.7325 11.3503125 -2.7325 11.3503125 -4.5 10.6875 C-5.655 10.130625 -6.81 9.57375 -8 9 C-8.9375 5.8125 -8.9375 5.8125 -9 3 C-5.97244082 0.30883629 -4.06495202 -0.62537723 0 0 Z " fill="#939393" transform="translate(494,237)"/>
<path d="M0 0 C2.375 1.5 2.375 1.5 4 3 C3.67 3.99 3.34 4.98 3 6 C2.34 6 1.68 6 1 6 C1 5.34 1 4.68 1 4 C-3.34184202 4.18464366 -3.34184202 4.18464366 -7 6 C-7.04092937 8.33297433 -7.04241723 10.66705225 -7 13 C-1.94990405 13.93786082 -1.94990405 13.93786082 3 13 C3.66 13.66 4.32 14.32 5 15 C3.35452013 16.98193582 2.44124297 17.90980116 -0.12109375 18.43359375 C-6.40773976 18.44419518 -6.40773976 18.44419518 -9.5 16.125 C-12.0176921 12.55826952 -12.43025391 10.38858992 -12 6 C-8.50970046 0.76455069 -6.2699235 -0.50159388 0 0 Z " fill="#939393" transform="translate(442,237)"/>
<path d="M0 0 C2.375 1.5 2.375 1.5 4 3 C3.67 3.99 3.34 4.98 3 6 C2.36191406 5.91621094 1.72382813 5.83242187 1.06640625 5.74609375 C0.24011719 5.64425781 -0.58617187 5.54242188 -1.4375 5.4375 C-2.26121094 5.33308594 -3.08492188 5.22867188 -3.93359375 5.12109375 C-4.95646484 5.06115234 -4.95646484 5.06115234 -6 5 C-7.40432936 6.17718985 -7.40432936 6.17718985 -7.125 9.5 C-7.40432936 12.82281015 -7.40432936 12.82281015 -6 14 C-2.63370749 14.14636054 -0.21580438 14.07193479 3 13 C3.66 13.66 4.32 14.32 5 15 C2.47374321 17.52625679 0.48536865 18.27493616 -3 18.4375 C-6.1210209 18.32707282 -6.85441351 18.11198961 -9.4375 16.125 C-12.04191134 12.58300058 -12.43241556 10.41063875 -12 6 C-8.50970046 0.76455069 -6.2699235 -0.50159388 0 0 Z " fill="#939393" transform="translate(343,237)"/>
<path d="M0 0 C1.8125 1.375 1.8125 1.375 3 3 C3 3.66 3 4.32 3 5 C0.36 4.67 -2.28 4.34 -5 4 C-5 4.99 -5 5.98 -5 7 C-3.88625 7.28875 -2.7725 7.5775 -1.625 7.875 C2 9 2 9 4 11 C3.43181818 16.56818182 3.43181818 16.56818182 2 18 C0.48071962 18.07179964 -1.04167482 18.08392007 -2.5625 18.0625 C-3.38878906 18.05347656 -4.21507812 18.04445312 -5.06640625 18.03515625 C-6.02353516 18.01775391 -6.02353516 18.01775391 -7 18 C-7.66 16.68 -8.32 15.36 -9 14 C-5.72724974 14 -3.153368 14.29925156 0 15 C-0.71004465 11.72143001 -0.71004465 11.72143001 -3.9375 10.4375 C-4.948125 9.963125 -5.95875 9.48875 -7 9 C-7.66 8.34 -8.32 7.68 -9 7 C-8.8125 4.5 -8.8125 4.5 -8 2 C-4.76746204 -0.15502531 -3.74849077 -0.46856135 0 0 Z " fill="#929292" transform="translate(280,237)"/>
<path d="M0 0 C0.99 0 1.98 0 3 0 C3 2.31 3 4.62 3 7 C5.31 7 7.62 7 10 7 C10 4.69 10 2.38 10 0 C10.99 0 11.98 0 13 0 C13 5.61 13 11.22 13 17 C12.01 17 11.02 17 10 17 C10 14.69 10 12.38 10 10 C7.69 10 5.38 10 3 10 C3 12.31 3 14.62 3 17 C2.01 17 1.02 17 0 17 C0 11.39 0 5.78 0 0 Z " fill="#8A8A8A" transform="translate(350,238)"/>
<path d="M0 0 C0.99 0 1.98 0 3 0 C1.75971762 6.17222879 0.10396411 12.06682122 -2 18 C-3.65 18 -5.3 18 -7 18 C-7.83919398 15.73117913 -8.67151724 13.46022973 -9.5 11.1875 C-9.73847656 10.54490234 -9.97695312 9.90230469 -10.22265625 9.24023438 C-11.27068746 6.35066261 -12 4.09923939 -12 1 C-10.109375 1.21484375 -10.109375 1.21484375 -8 2 C-6.953125 4.06640625 -6.953125 4.06640625 -6.25 6.5625 C-6.00765625 7.38878906 -5.7653125 8.21507812 -5.515625 9.06640625 C-5.34546875 9.70449219 -5.1753125 10.34257812 -5 11 C-4.58427734 9.93458984 -4.58427734 9.93458984 -4.16015625 8.84765625 C-3.79792969 7.92855469 -3.43570313 7.00945312 -3.0625 6.0625 C-2.52302734 4.68771484 -2.52302734 4.68771484 -1.97265625 3.28515625 C-1 1 -1 1 0 0 Z " fill="#929292" transform="translate(218,237)"/>
<path d="M0 0 C5.61 0 11.22 0 17 0 C17 1.32 17 2.64 17 4 C15.68 4 14.36 4 13 4 C13 8.62 13 13.24 13 18 C11.68 18 10.36 18 9 18 C9 13.38 9 8.76 9 4 C7.35 4 5.7 4 4 4 C3.67 3.34 3.34 2.68 3 2 C2.01 1.34 1.02 0.68 0 0 Z " fill="#9D9D9D" transform="translate(638,237)"/>
<path d="M0 0 C4.29 0 8.58 0 13 0 C13 1.32 13 2.64 13 4 C11.35 4 9.7 4 8 4 C8 8.62 8 13.24 8 18 C6.68 18 5.36 18 4 18 C4 13.38 4 8.76 4 4 C2.68 4 1.36 4 0 4 C0 2.68 0 1.36 0 0 Z " fill="#9B9B9B" transform="translate(673,237)"/>
<path d="M0 0 C4.29 0 8.58 0 13 0 C13 1.32 13 2.64 13 4 C11.35 4 9.7 4 8 4 C8 8.62 8 13.24 8 18 C6.68 18 5.36 18 4 18 C4 13.38 4 8.76 4 4 C2.68 4 1.36 4 0 4 C0 2.68 0 1.36 0 0 Z " fill="#9B9B9B" transform="translate(526,237)"/>
<path d="M0 0 C3.0625 0.3125 3.0625 0.3125 4.9375 1.5 C6.46909584 3.96757108 6.49072025 5.45769831 6.0625 8.3125 C5 10.1875 5 10.1875 3.0625 11.3125 C-3.38194444 10.86805556 -3.38194444 10.86805556 -4.9375 9.3125 C-5.125 5.875 -5.125 5.875 -4.9375 2.3125 C-2.9375 0.3125 -2.9375 0.3125 0 0 Z " fill="#FAFAFA" transform="translate(456.9375,240.6875)"/>
<path d="M0 0 C1.875 0.125 1.875 0.125 4 1 C5.25 4.0625 5.25 4.0625 6 7 C6.66 7 7.32 7 8 7 C8.66 5.02 9.32 3.04 10 1 C11.32 1 12.64 1 14 1 C12.16504854 5.7184466 12.16504854 5.7184466 10.9375 7.8125 C9.51539981 11.13073378 9.35851435 14.41485649 9 18 C7.68 18 6.36 18 5 18 C4.89042969 17.33613281 4.78085937 16.67226562 4.66796875 15.98828125 C3.77387702 11.0089899 2.84210252 7.26315378 0 3 C0 2.01 0 1.02 0 0 Z " fill="#949494" transform="translate(590,237)"/>
<path d="M0 0 C5.42857143 -0.36190476 5.42857143 -0.36190476 7.875 1.1875 C9.40659584 3.65507108 9.42822025 5.14519831 9 8 C7.875 9.8125 7.875 9.8125 6 11 C2.8125 11.1875 2.8125 11.1875 0 11 C0 7.37 0 3.74 0 0 Z " fill="#F8F8F8" transform="translate(691,241)"/>
<path d="M0 0 C5.3820598 -0.35880399 5.3820598 -0.35880399 7.9375 1.125 C9 3 9 3 8.8125 6.0625 C8 9 8 9 6 11 C2.875 11.125 2.875 11.125 0 11 C0 7.37 0 3.74 0 0 Z " fill="#F7F7F7" transform="translate(410,241)"/>
<path d="M0 0 C0.99 0 1.98 0 3 0 C3 4.62 3 9.24 3 14 C5.31 14 7.62 14 10 14 C10 14.99 10 15.98 10 17 C6.7 17 3.4 17 0 17 C0 11.39 0 5.78 0 0 Z " fill="#8A8A8A" transform="translate(664,238)"/>
<path d="M0 0 C0.99 0 1.98 0 3 0 C3 4.62 3 9.24 3 14 C5.31 14 7.62 14 10 14 C10 14.99 10 15.98 10 17 C6.7 17 3.4 17 0 17 C0 11.39 0 5.78 0 0 Z " fill="#898989" transform="translate(517,238)"/>
<path d="M0 0 C0.99 0 1.98 0 3 0 C3 4.62 3 9.24 3 14 C5.31 14 7.62 14 10 14 C10 14.99 10 15.98 10 17 C6.7 17 3.4 17 0 17 C0 11.39 0 5.78 0 0 Z " fill="#898989" transform="translate(188,238)"/>
<path d="M0 0 C1.02645274 2.05290548 2.04560413 4.09975903 3 6.1875 C3.87144569 8.17201523 3.87144569 8.17201523 6 9 C7.70702735 9.06996014 9.41668003 9.08440154 11.125 9.0625 C12.03507812 9.05347656 12.94515625 9.04445312 13.8828125 9.03515625 C14.58148438 9.02355469 15.28015625 9.01195312 16 9 C15.67 9.66 15.34 10.32 15 11 C8.73 11 2.46 11 -4 11 C-3.01 10.34 -2.02 9.68 -1 9 C-1.66 8.01 -2.32 7.02 -3 6 C-2.75 3.375 -2.75 3.375 -2 1 C-1.34 0.67 -0.68 0.34 0 0 Z " fill="#F4F4F4" transform="translate(330,245)"/>
<path d="M0 0 C0.33 0 0.66 0 1 0 C1 5.94 1 11.88 1 18 C-3.62 18 -8.24 18 -13 18 C-13 17.67 -13 17.34 -13 17 C-9.97265625 16.36523438 -9.97265625 16.36523438 -6.9453125 15.73046875 C-4.62953451 15.07691162 -4.62953451 15.07691162 -3 12 C-2.60986284 10.0103005 -2.26797351 8.00980131 -2 6 C-1.67 6 -1.34 6 -1 6 C-0.67 4.02 -0.34 2.04 0 0 Z " fill="#F1F1F1" transform="translate(468,238)"/>
<path d="M0 0 C3.47226667 3.19814036 5.30587154 5.64366968 7 10 C7.99 10.33 8.98 10.66 10 11 C5.71 11 1.42 11 -3 11 C-2.01 10.67 -1.02 10.34 0 10 C0 6.7 0 3.4 0 0 Z " fill="#F4F4F4" transform="translate(393,245)"/>
<path d="M0 0 C0.99 0 1.98 0 3 0 C3 5.61 3 11.22 3 17 C2.01 17 1.02 17 0 17 C0 11.39 0 5.78 0 0 Z " fill="#8A8A8A" transform="translate(200,238)"/>
<path d="M0 0 C2.64 0 5.28 0 8 0 C8 0.99 8 1.98 8 3 C9.32 3.33 10.64 3.66 12 4 C6.39 4 0.78 4 -5 4 C-4.67 3.34 -4.34 2.68 -4 2 C-3.01 2 -2.02 2 -1 2 C-0.67 1.34 -0.34 0.68 0 0 Z " fill="#F8F8F8" transform="translate(376,252)"/>
<path d="M0 0 C2.64 0 5.28 0 8 0 C8 0.99 8 1.98 8 3 C9.32 3.33 10.64 3.66 12 4 C6.39 4 0.78 4 -5 4 C-3.68 3.67 -2.36 3.34 -1 3 C-0.67 2.01 -0.34 1.02 0 0 Z " fill="#F8F8F8" transform="translate(303,252)"/>
<path d="M0 0 C1.32 0 2.64 0 4 0 C4 4.95 4 9.9 4 15 C7.90432869 16.95216435 10.72213252 17.50639991 15 18 C15 18.33 15 18.66 15 19 C11.04 19 7.08 19 3 19 C3 13.06 3 7.12 3 1 C2.01 0.67 1.02 0.34 0 0 Z " fill="#DBDBDB" transform="translate(479,237)"/>
<path d="M0 0 C1.875 0.25 1.875 0.25 4 1 C4.6837045 2.32467746 5.34964186 3.65863633 6 5 C7.32 5.66 8.64 6.32 10 7 C5.71 7 1.42 7 -3 7 C-2.01 6.67 -1.02 6.34 0 6 C0 4.02 0 2.04 0 0 Z " fill="#F7F7F7" transform="translate(246,249)"/>
<path d="M0 0 C0.515625 0.309375 1.03125 0.61875 1.5625 0.9375 C4.66665423 2.29059287 7.65115007 2.61359424 11 3 C11 3.33 11 3.66 11 4 C3.74 4 -3.52 4 -11 4 C-11 3.67 -11 3.34 -11 3 C-7.37 3 -3.74 3 0 3 C0 2.01 0 1.02 0 0 Z " fill="#F0F0F0" transform="translate(269,252)"/>
<path d="M0 0 C1.65 0 3.3 0 5 0 C5.5625 1.9375 5.5625 1.9375 6 4 C5 5 5 5 2.4375 5.0625 C1.2309375 5.0315625 1.2309375 5.0315625 0 5 C0 3.35 0 1.7 0 0 Z " fill="#F5F5F5" transform="translate(616,241)"/>
<path d="M0 0 C1.65 0 3.3 0 5 0 C5.5625 1.9375 5.5625 1.9375 6 4 C5 5 5 5 2.4375 5.0625 C1.2309375 5.0315625 1.2309375 5.0315625 0 5 C0 3.35 0 1.7 0 0 Z " fill="#FAFAFA" transform="translate(320,241)"/>
<path d="M0 0 C1.65 0 3.3 0 5 0 C5.5625 1.9375 5.5625 1.9375 6 4 C5 5 5 5 2.4375 5.0625 C1.2309375 5.0315625 1.2309375 5.0315625 0 5 C0 3.35 0 1.7 0 0 Z " fill="#F9F9F9" transform="translate(246,241)"/>
<path d="M0 0 C2.35953094 2.35953094 2.49141413 3.77895617 3 7 C1.35 7 -0.3 7 -2 7 C-1.34 4.69 -0.68 2.38 0 0 Z " fill="#E8E8E8" transform="translate(306,242)"/>
<path d="M0 0 C2 3 2 3 2 7 C0.68 7 -0.64 7 -2 7 C-1.125 1.125 -1.125 1.125 0 0 Z " fill="#EAEAEA" transform="translate(546,242)"/>
<path d="M0 0 C0.66 0.33 1.32 0.66 2 1 C2.625 4.0625 2.625 4.0625 3 7 C1.68 7 0.36 7 -1 7 C-0.67 4.69 -0.34 2.38 0 0 Z " fill="#EAEAEA" transform="translate(379,242)"/>
</svg>
